<?xml version="1.0" standalone="no"?>
<!DOCTYPE svg PUBLIC "-//W3C//DTD SVG 20010904//EN"
 "http://www.w3.org/TR/2001/REC-SVG-20010904/DTD/svg10.dtd">
<svg version="1.0" xmlns="http://www.w3.org/2000/svg"
 width="4050.000000pt" height="903.000000pt" viewBox="0 0 4050.000000 903.000000"
 preserveAspectRatio="xMidYMid meet">

<g transform="translate(0.000000,903.000000) scale(0.100000,-0.100000)"
fill="#000000" stroke="none">
<path d="M3348 8038 c-12 -11 -17 -59 -26 -258 -23 -505 -97 -904 -252 -1370
-395 -1187 -1230 -2183 -2330 -2781 -74 -40 -138 -78 -142 -83 -16 -24 -4 -58
81 -231 103 -211 174 -335 284 -500 617 -924 1580 -1559 2667 -1759 281 -51
393 -61 740 -61 348 0 473 10 750 61 1153 211 2165 914 2775 1928 97 162 255
481 255 516 0 35 -14 46 -150 117 -149 77 -385 223 -529 326 -1176 844 -1907
2101 -2061 3542 -6 55 -13 197 -17 315 -4 172 -9 218 -21 233 -14 16 -75 17
-1012 17 -782 0 -999 -3 -1012 -12z m1612 -436 c16 -13 23 -32 27 -67 69 -746
237 -1338 558 -1975 267 -529 575 -952 999 -1375 295 -295 532 -489 851 -696
197 -128 195 -127 195 -149 0 -25 -106 -204 -205 -345 -147 -210 -333 -425
-367 -425 -38 0 -434 274 -663 458 -383 308 -818 757 -1105 1142 -569 764
-948 1604 -1139 2530 -54 264 -111 690 -111 835 0 89 -26 85 491 85 414 0 448
-1 469 -18z m-1288 -899 c8 -10 23 -58 32 -108 59 -304 219 -833 346 -1140 34
-82 64 -162 67 -176 4 -19 -14 -64 -66 -165 -328 -647 -773 -1244 -1295 -1739
-161 -152 -248 -250 -318 -360 -137 -212 -208 -452 -208 -702 0 -100 -2 -115
-20 -133 -27 -27 -31 -26 -87 16 -192 145 -436 386 -610 602 -169 210 -369
525 -359 565 3 15 46 48 131 102 484 307 970 753 1353 1244 110 140 311 443
407 610 230 403 412 848 526 1285 12 48 29 94 37 102 19 19 46 18 64 -3z m710
-1975 c9 -7 55 -80 103 -163 248 -427 559 -843 920 -1229 86 -92 145 -163 145
-175 0 -27 -35 -50 -190 -125 -527 -257 -1132 -296 -1698 -111 -133 44 -349
142 -439 198 -68 43 -62 60 65 191 340 351 680 804 947 1261 102 174 109 182
147 153z m-1447 -1938 c113 -72 336 -183 468 -234 185 -72 384 -123 612 -157
119 -18 598 -19 715 -1 401 61 739 181 1066 380 56 34 108 62 115 62 8 0 55
-34 104 -76 133 -111 338 -266 504 -379 132 -91 146 -103 146 -130 0 -25 -12
-38 -75 -87 -500 -387 -1114 -635 -1795 -725 -203 -26 -658 -24 -872 5 -361
49 -746 155 -1017 281 -94 44 -101 51 -154 151 -140 263 -140 572 0 843 35 68
76 117 97 117 4 0 43 -23 86 -50z"/>
<path d="M11210 7078 c-15 -34 -1840 -4928 -1840 -4933 0 -3 227 -5 504 -5
471 0 504 1 511 18 3 9 89 240 190 512 101 272 186 503 190 513 7 16 63 17
1028 15 l1022 -3 195 -527 195 -528 518 0 c285 0 516 3 514 8 -3 4 -419 1112
-925 2462 -506 1350 -923 2463 -927 2473 -7 16 -44 17 -586 17 l-579 0 -10
-22z m924 -2058 c191 -514 346 -941 346 -947 0 -10 -145 -13 -695 -13 -382 0
-695 2 -695 4 0 2 155 427 345 946 190 518 345 945 345 948 0 3 2 3 4 1 3 -3
160 -425 350 -939z"/>
<path d="M14730 4620 l0 -2480 485 0 485 0 0 1702 c0 1361 3 1700 13 1690 6
-7 527 -772 1157 -1700 l1146 -1687 447 -3 447 -2 0 2480 0 2480 -490 0 -490
0 -2 -1621 -3 -1620 -1084 1620 -1084 1621 -513 0 -514 0 0 -2480z"/>
<path d="M19780 4620 l0 -2481 1033 4 c997 3 1036 4 1162 24 314 52 545 122
780 237 595 291 988 785 1155 1451 69 272 85 416 84 760 0 232 -4 328 -18 425
-81 580 -293 1032 -650 1385 -407 404 -946 623 -1636 665 -91 5 -558 10 -1037
10 l-873 0 0 -2480z m1834 1600 c395 -29 693 -151 932 -382 145 -141 239 -279
314 -463 142 -346 177 -795 95 -1201 -109 -540 -435 -926 -915 -1083 -216 -71
-244 -74 -782 -78 l-488 -4 0 1604 c0 882 3 1607 7 1610 10 11 682 8 837 -3z"/>
<path d="M24550 5608 c0 -1479 5 -1724 35 -1929 76 -517 306 -938 662 -1212
256 -197 565 -317 973 -379 118 -18 644 -18 765 0 698 105 1168 418 1435 957
139 283 201 545 220 935 5 102 9 845 10 1653 l0 1467 -510 0 -510 0 0 -1524
c0 -991 -4 -1560 -10 -1627 -33 -326 -128 -556 -300 -729 -187 -187 -431 -269
-769 -257 -290 10 -482 82 -652 244 -151 145 -237 319 -296 600 -15 70 -17
248 -20 1686 l-4 1607 -514 0 -515 0 0 -1492z"/>
<path d="M29440 4621 l0 -2481 510 0 510 0 0 920 0 920 343 0 342 0 569 -916
c314 -504 575 -918 580 -920 6 -2 269 -3 583 -2 l572 3 -614 965 -614 964 105
37 c529 187 854 544 964 1064 27 127 38 434 21 580 -40 343 -157 610 -364 832
-197 210 -527 381 -874 452 -261 54 -264 54 -1490 58 l-1143 4 0 -2480z m2214
1594 c218 -33 360 -97 478 -215 127 -126 178 -261 178 -470 0 -209 -52 -344
-179 -470 -85 -85 -167 -133 -299 -174 -156 -49 -263 -56 -843 -56 l-529 0 0
700 0 700 548 0 c433 0 568 -3 646 -15z"/>
<path d="M34000 4620 l0 -2480 510 0 510 0 0 2480 0 2480 -510 0 -510 0 0
-2480z"/>
<path d="M35880 4620 l0 -2480 1650 0 1650 0 0 435 0 435 -1140 0 -1140 0 0
2045 0 2045 -510 0 -510 0 0 -2480z"/>
</g>
</svg>
