<svg version="1.1" viewBox="0.0 0.0 96.96062992125984 96.96062992125984" fill="none" stroke="none" stroke-linecap="square" stroke-miterlimit="10" xmlns:xlink="http://www.w3.org/1999/xlink" xmlns="http://www.w3.org/2000/svg"><clipPath id="p.0"><path d="m0 0l96.96063 0l0 96.96063l-96.96063 0l0 -96.96063z" clip-rule="nonzero"/></clipPath><g clip-path="url(#p.0)"><path fill="#000000" fill-opacity="0.0" d="m0 0l96.96063 0l0 96.96063l-96.96063 0z" fill-rule="evenodd"/><path fill="#34a203" d="m61.519684 -0.08792651l35.527557 0l0 97.13386l-35.527557 0z" fill-rule="evenodd"/><path stroke="#34a203" stroke-width="1.0" stroke-linejoin="round" stroke-linecap="butt" d="m61.519684 -0.08792651l35.527557 0l0 97.13386l-35.527557 0z" fill-rule="evenodd"/><path fill="#34a203" d="m-0.08661418 -0.08661418l17.92126 0l0 97.13386l-17.92126 0z" fill-rule="evenodd"/><path stroke="#34a203" stroke-width="1.0" stroke-linejoin="round" stroke-linecap="butt" d="m-0.08661418 -0.08661418l17.92126 0l0 97.13386l-17.92126 0z" fill-rule="evenodd"/><path fill="#34a203" d="m46.25197 -0.08661418l8.755905 0l0 97.13386l-8.755905 0z" fill-rule="evenodd"/><path stroke="#34a203" stroke-width="1.0" stroke-linejoin="round" stroke-linecap="butt" d="m46.25197 -0.08661418l8.755905 0l0 97.13386l-8.755905 0z" fill-rule="evenodd"/></g></svg>