<?xml version="1.0" encoding="UTF-8"?>
<svg id="Livello_2" data-name="Livello 2" xmlns="http://www.w3.org/2000/svg" viewBox="0 0 201.99 81.76">
  <defs>
    <style>
      .cls-1 {
        stroke-width: 0px;
      }
    </style>
  </defs>
  <g id="Livello_1-2" data-name="Livello 1">
    <g>
      <path class="cls-1" d="m79.94,28.9c.22-.04.36-.09.51-.09.54-.01,1.08,0,1.62,0,12.38,0,24.75,0,37.13,0,.5,0,1.01,0,1.5-.08,1.59-.28,2.75-1.17,3.53-2.57,1-1.79,1.27-3.71.98-5.72-.18-1.24-.59-2.4-1.37-3.41-.88-1.15-2.04-1.74-3.47-1.85-.35-.03-.7-.01-1.04-.01-13.31,0-26.61,0-39.92,0-.53,0-1.08-.1-1.64.17-.06.2-.15.41-.17.63-.03.38-.02.77-.02,1.16,0,13.5,0,27,0,40.5,0,.49.1,1-.16,1.53-.21.03-.43.1-.65.1-4.6,0-9.21,0-13.81,0-.19,0-.37-.04-.56-.06-.04-.16-.1-.27-.1-.38,0-19.38.02-38.76.03-58.13,0-.15.07-.3.11-.5.21-.06.42-.14.64-.16.23-.03,39.3-.02,58.6,0,2.47,0,4.93.31,7.34.92,1.24.31,2.43.76,3.55,1.39,1.54.87,2.82,2.02,3.8,3.51,1.72,2.63,2.8,5.48,3.21,8.61.15,1.12.12,2.24.23,3.35.22,2.16.24,4.33.15,6.49-.12,2.97-.29,5.94-1.12,8.83-.75,2.61-2.01,4.92-3.83,6.94-1.37,1.53-3.06,2.46-5.03,2.91-1.13.26-2.27.4-3.43.54-2.47.29-4.94.25-7.41.25-10.02.03-20.04.01-30.05.01-.46,0-.92-.03-1.43-.04-.18-.27-.37-.51-.5-.77-2.3-4.42-4.6-8.85-6.9-13.28-.12-.23-.21-.48-.34-.79Z"/>
      <path class="cls-1" d="m.1,59.17c.09-.23.14-.41.23-.57,1.77-3.23,8.1-13.7,8.76-14.45.39,0,.85-.02,1.31-.02,9.2,0,18.41,0,27.61,0,.69,0,1.39-.07,2.07-.18,1.94-.31,2.93-1.57,3.28-3.42.18-.95.26-1.91.26-2.88-.01-6.38,0-12.76-.01-19.14,0-5.68-.01-11.37-.02-17.05,0-.42-.06-.85.12-1.24.4-.29.84-.18,1.26-.18,3.02,0,6.03,0,9.05,0,1.08,0,2.17,0,3.25,0,.34,0,.69.03,1.08.05.07.25.15.47.17.68.03.27.01.54.01.81,0,13.88,0,27.77,0,41.65,0,1.51-.13,3.01-.42,4.49-.79,4.08-3.04,7.14-6.61,9.2-1.99,1.15-4.16,1.81-6.44,2.16-1.16.17-2.31.2-3.46.2-13.34,0-26.68,0-40.03,0-.45,0-.92.05-1.45-.09Z"/>
      <path class="cls-1" d="m143.32.12c1.06-.15,13.35-.15,14.39,0,.05.19.14.4.15.62.03.35.01.7.01,1.04,0,13.5,0,27,0,40.49,0,.53.04,1.07.06,1.64.28.08.49.18.7.19.38.03.77.02,1.16.02,10.48,0,20.96,0,31.44,0,.5,0,1,.01,1.41.02.67.74,8.52,13.36,9.32,14.94-.18.31-.48.16-.73.16-3.94.01-7.89.01-11.83.01-10.29,0-20.58-.03-30.86.02-2.73.01-5.2-.68-7.45-2.15-4-2.59-6.69-6.14-7.76-10.83-.12-.52-.16-1.07-.19-1.61-.04-.66-.03-1.31-.03-1.97,0-13.65,0-27.3,0-40.96,0-.53-.11-1.08.2-1.64Z"/>
      <path class="cls-1" d="m188.26,70.07c.56-.28,1.13-.07,1.73-.15.12.33.21.6.31.88.1-.07.19-.09.23-.15.63-.87,1.47-1.04,2.47-.77.25.07.52.06.79.06.65,0,1.31-.08,2.03.07.73,1.8,1.2,3.72,1.94,5.51.3.02.36-.17.42-.35.45-1.36.89-2.71,1.35-4.07.12-.36.26-.71.4-1.1.31-.03.57-.07.84-.07.38,0,.76.02,1.23.03-.06.29-.08.51-.15.71-1.05,2.9-2.12,5.81-3.18,8.71-.03.07-.05.14-.08.22-.71,1.73-1.65,2.3-3.52,2.13-.23-.02-.45-.08-.7-.13-.2-.45-.2-.9-.15-1.43.22-.04.43-.11.65-.1.84.02,1.38-.39,1.69-1.15.06-.14.11-.29.19-.5-.5-1.33-1.01-2.7-1.53-4.07-.5-1.33-.97-2.67-1.61-4.14-.3.66-.51,1.15-.74,1.65-.33-.06-.62-.15-.92-.17-.56-.05-1,.18-1.22.7-.16.38-.28.81-.3,1.22-.07,1.12-.08,2.24-.12,3.36-.02.42.08.85-.16,1.29-.58.16-1.18.11-1.83.03-.04-.16-.11-.3-.11-.44,0-2.47,0-4.95,0-7.42,0-.11.05-.22.08-.35Z"/>
      <path class="cls-1" d="m31.26,74.08c-.15,1.38.04,2.76-.11,4.17-.74.13-1.41.14-2.11,0-.03-.19-.08-.34-.08-.49,0-3.51,0-7.02,0-10.54,0-.11.06-.21.12-.37.22-.03.44-.09.66-.09,1.62,0,3.24.06,4.86.04,1.54-.02,3.12,1.2,3.15,3.18,0,.35,0,.7-.04,1.04-.18,1.4-1.2,2.51-2.6,2.73-.83.13-1.69.14-2.53.19-.41.03-.84-.05-1.32.13Zm0-2.16c1.05.2,2.01.14,2.95-.02.72-.13,1.19-.78,1.22-1.49.03-.74-.37-1.33-1.09-1.6-.61-.23-2.29-.21-3.08.04-.1.98-.08,1.97,0,3.08Z"/>
      <path class="cls-1" d="m58.23,77.52c-.2,1.35.02,2.63-.15,3.91-.65.23-1.28.19-1.95.03-.03-.25-.08-.47-.09-.7-.1-2.92-.04-9.68.1-10.68.52-.27,1.09-.14,1.7-.12.1.3.19.57.28.84.11-.01.21,0,.25-.03.43-.4.88-.75,1.46-.91,1.44-.39,2.93.17,3.67,1.52.99,1.82.98,3.72-.04,5.53-.76,1.37-2.27,1.92-3.67,1.47-.32-.1-.61-.32-.91-.48-.19-.11-.38-.22-.64-.37Zm3.77-3.37c-.06-.59-.07-1.17-.35-1.7-.33-.63-.82-1.01-1.55-1.02-.73-.02-1.3.32-1.6.95-.57,1.18-.54,2.4.08,3.55.36.66.97.98,1.74.89.73-.09,1.2-.53,1.41-1.2.15-.47.18-.98.26-1.47Z"/>
      <path class="cls-1" d="m137.59,66.83c.42-.03.76-.06,1.1-.06.26,0,.52.05.83.08.2,1.25,0,2.49.14,3.8.21-.09.38-.14.52-.23,2.18-1.41,4.59-.49,5.25,2,.31,1.19.27,2.37-.06,3.54-.23.8-.67,1.47-1.36,1.96-1.05.76-2.38.81-3.47.12-.29-.19-.55-.41-.82-.61-.06,0-.12,0-.13.02-.11.27-.21.54-.33.85h-1.64c-.05-.22-.12-.4-.12-.58,0-3.43,0-6.87,0-10.3,0-.15.04-.3.09-.59Zm5.89,7.29c-.06-.64-.11-1.25-.41-1.81-.65-1.21-2.35-1.31-3.03-.11-.7,1.22-.63,2.52.03,3.75.33.62.91.93,1.64.87.73-.06,1.22-.47,1.45-1.14.17-.5.22-1.04.32-1.57Z"/>
      <path class="cls-1" d="m45.62,74.25c0-2.09.98-3.65,2.66-4.22,2.59-.88,5.06.29,5.75,2.72.31,1.07.27,2.14-.14,3.18-.84,2.11-3.19,3.12-5.48,2.37-1.59-.52-2.47-1.65-2.73-3.27-.05-.3-.05-.61-.06-.77Zm6.44-.13c-.1-.45-.14-.92-.3-1.35-.3-.79-.92-1.23-1.77-1.29-.81-.06-1.57.44-1.91,1.26-.38.93-.37,1.89.01,2.82.32.78.95,1.21,1.8,1.24.81.03,1.56-.48,1.87-1.31.16-.43.2-.9.29-1.37Z"/>
      <path class="cls-1" d="m181.94,69.74c3.17.03,4.67,2.42,4.46,4.81-.03.31-.08.62-.17.91-.47,1.51-1.43,2.56-2.99,2.93-1.69.4-3.24.06-4.44-1.26-1.22-1.34-1.35-3.76-.37-5.43.54-.91,1.33-1.5,2.33-1.78.44-.12.91-.14,1.18-.18Zm2.35,4.43c-.12-.5-.18-1.01-.36-1.46-.32-.77-.95-1.21-1.79-1.23-.84-.02-1.49.41-1.83,1.17-.45.99-.45,2.03.02,3.01.36.76,1.02,1.15,1.86,1.12.8-.03,1.4-.45,1.71-1.17.2-.45.26-.95.39-1.45Z"/>
      <path class="cls-1" d="m147.03,74.21c.01-2.07.96-3.59,2.6-4.16,1.72-.6,3.35-.43,4.74.87,1.75,1.64,1.78,5.11-.42,6.77-1.63,1.23-4.31,1.08-5.76-.36-.63-.62-.95-1.39-1.09-2.25-.05-.34-.06-.69-.07-.86Zm6.43-.09c-.1-.48-.14-.94-.3-1.36-.31-.81-1.08-1.32-1.87-1.29-.84.04-1.47.46-1.8,1.23-.41.96-.41,1.95.02,2.91.35.76.98,1.19,1.83,1.18.84-.01,1.47-.45,1.79-1.23.18-.45.23-.96.33-1.44Z"/>
      <path class="cls-1" d="m130.09,72.34c-.7.02-1.23-.18-1.79-.32-.04-.61.29-.99.62-1.37.37-.42.86-.66,1.4-.77.38-.08.77-.14,1.15-.13.62,0,1.25,0,1.84.14,1.37.3,1.88,1.09,1.89,2.14.01.97.03,1.93.02,2.9,0,1.08-.02,2.16.39,3.18q-.64.26-1.88.18c-.15-.21-.31-.46-.5-.73-.27.17-.53.34-.79.5-.88.5-1.82.62-2.8.34-.98-.28-1.62-1.07-1.72-2.11-.1-1.01.39-1.96,1.34-2.35.64-.26,1.32-.41,2-.57.6-.14,1.22-.22,1.76-.52.22-.4.11-.76-.14-1.08-.2-.27-.51-.33-.82-.36-.87-.1-1.64.04-1.97.94Zm3.04,1.96c-.78.18-1.41.31-2.04.46-.15.04-.29.1-.42.18-.68.38-.79,1.2-.22,1.74.26.25.58.37.94.36.87-.02,1.63-.67,1.74-1.54.04-.33,0-.68,0-1.2Z"/>
      <path class="cls-1" d="m168.37,72.8c.03-1.06-.19-1.35-1.09-1.4-.38-.02-.76.03-1.14.05-.29.31-.56.58-.88.93-.51-.09-1.07-.2-1.67-.31.09-.9.57-1.47,1.26-1.87.26-.15.57-.26.86-.32.96-.2,1.92-.19,2.88,0,1.02.2,1.9.82,1.93,2.12.01.5.04,1,.04,1.51,0,1.58-.14,3.16.37,4.74-.67.19-1.28.12-1.89.07-.15-.24-.3-.47-.43-.69-.09.01-.18,0-.23.03-.52.34-1.03.67-1.66.8-.54.11-1.07.1-1.6-.03-1.86-.45-2.17-2.27-1.63-3.46.25-.56.7-.93,1.27-1.12.62-.2,1.27-.34,1.9-.5.59-.15,1.22-.17,1.72-.54Zm0,1.62c-.86-.06-1.62.2-2.36.5-.62.25-.8.89-.5,1.43.2.36.51.57.9.65.85.17,1.84-.5,1.99-1.35.07-.41.11-.83-.04-1.23Z"/>
      <path class="cls-1" d="m97.94,69.74c3.03.04,4.65,2.58,4.2,5.17-.63,3.66-4.5,4.5-6.98,2.77-.48-.34-.86-.78-1.1-1.32-.56-1.25-.65-2.54-.22-3.83.6-1.8,2.12-2.81,4.09-2.79Zm2.11,4.4c-.1-.46-.14-.93-.3-1.35-.31-.84-.96-1.28-1.85-1.32-.79-.03-1.55.5-1.87,1.3-.35.89-.35,1.81,0,2.7.3.79,1.07,1.31,1.86,1.32.81,0,1.55-.48,1.86-1.31.16-.42.21-.89.31-1.35Z"/>
      <path class="cls-1" d="m14.96,75.86c.31.03.66.04,1,.09.26.04.52.13.86.22-.08.25-.11.46-.22.64-.51.89-1.27,1.42-2.28,1.62-.69.14-1.37.13-2.07,0-1.15-.22-2-.84-2.48-1.89-.73-1.6-.72-3.23.04-4.81.54-1.11,1.45-1.77,2.71-1.93,2.43-.31,3.99,1.07,4.37,3,.11.57.2,1.14.1,1.79-.24.04-.5.11-.75.12-1.2.01-2.39,0-3.59.01-.34,0-.68.04-.99.06-.28.45-.1.83.09,1.14.2.31.48.62.8.8.78.43,1.46.17,2.4-.85Zm-3.39-2.46c1.1.05,2.13.13,3.16-.05.06-.01.1-.11.15-.16-.2-1.26-.72-1.81-1.68-1.8-.97.01-1.51.62-1.63,2.01Z"/>
      <path class="cls-1" d="m79.82,76.21c.59-.45,1.28-.24,1.91-.46.13.16.22.27.31.38.66.9,1.76,1.18,2.76.69.44-.21.64-.54.49-1.02-.24-.45-.71-.46-1.1-.58-.63-.19-1.27-.33-1.9-.51-.33-.1-.67-.21-.97-.37-1.61-.84-1.72-2.94-.24-4.02,1.1-.81,4.19-.73,5.11.01.46.38.67.64.92,1.47-.59.17-1.16.36-1.86.31-.48-.81-1.27-1-2.17-.86-.46.07-.93.16-1.02.73.08.38.34.55.64.64.59.18,1.19.31,1.78.49.59.18,1.18.35,1.75.6,1.35.58,1.61,2.09.97,3.23-.4.71-1.02,1.16-1.79,1.38-1.14.32-2.3.32-3.43-.02-1.05-.32-1.82-.98-2.17-2.09Z"/>
      <path class="cls-1" d="m71.48,70.06c.65-.22,1.26-.15,1.92-.07.06.19.15.37.15.54.01,2.39.01,4.78,0,7.18,0,.18-.08.36-.14.58h-1.68c-.07-.3-.15-.59-.22-.9-.11.03-.24.04-.32.11-.5.43-1.03.79-1.7.94-.54.12-1.07.12-1.6-.02-.99-.26-1.6-.89-1.79-1.9-.07-.34-.09-.69-.09-1.04-.01-1.58-.01-3.16,0-4.75,0-.22.06-.45.09-.69.64-.2,1.24-.14,1.92-.05.03.27.09.53.09.78.01,1.2,0,2.39.01,3.59,0,.39,0,.77.05,1.16.17,1.3,1.44,1.81,2.49,1.02.39-.3.61-.7.68-1.17.05-.34.07-.69.07-1.04.01-1.08,0-2.16.01-3.24,0-.34.03-.68.05-1.03Z"/>
      <path class="cls-1" d="m106.12,78.27c-.71.1-1.31.14-1.94-.02-.05-.18-.11-.32-.11-.47,0-2.47,0-4.94.02-7.41,0-.1.08-.21.13-.34.52-.18,1.05-.1,1.65-.06.08.3.15.58.23.89.11-.03.24-.02.31-.09.44-.38.9-.74,1.47-.89.69-.19,1.38-.18,2.06.04.88.28,1.44.88,1.59,1.81.06.38.1.77.1,1.15.01,1.54.01,3.09,0,4.63,0,.23-.06.45-.09.66-.85.24-.98.24-1.99.03-.02-.32-.05-.66-.06-.99,0-1.16,0-2.32,0-3.47,0-.35,0-.7-.05-1.04-.17-1.13-1.11-1.62-2.15-1.15-.48.22-.83.58-.93,1.11-.09.49-.16.99-.17,1.49-.03,1.12,0,2.24-.01,3.36,0,.23-.03.46-.06.78Z"/>
      <path class="cls-1" d="m118.69,66.87h1.94c.34.33.23.74.23,1.11.01,2.36,0,4.71.01,7.07,0,.41-.1.85.17,1.27.9.17,1.83.06,2.74.08.92.02,1.84.02,2.77.02.3.61.21,1.17.13,1.67-.08.09-.1.12-.13.15-.03.02-.07.04-.1.04-2.28.02-4.55.04-6.83.05-.27,0-.53-.03-.85-.05-.05-.23-.15-.45-.15-.66,0-3.36,0-6.72,0-10.08,0-.19.04-.37.08-.67Z"/>
      <path class="cls-1" d="m0,74.82c.66-.14,1.3-.22,2.01-.22.07.32.13.62.21.91.23.78.76,1.13,1.56,1.07.61-.05,1.01-.34,1.15-.96.09-.41.11-.84.11-1.26.01-2.09,0-4.17.01-6.26,0-.38.03-.76.04-1.21.71-.2,1.38-.16,2.11-.04.03.28.09.54.09.8,0,2.28.02,4.56,0,6.84,0,.57-.08,1.16-.22,1.71-.26,1.05-.98,1.74-1.99,2.09-.97.34-1.98.34-2.96.04-.57-.17-1.05-.49-1.41-.97-.55-.74-.76-1.57-.72-2.54Z"/>
      <path class="cls-1" d="m171.97,71.56v-1.48c.31-.1.6-.19.91-.29.05-.5.1-1,.15-1.51.63-.46,1.24-.9,2.05-1.14.02.91.04,1.75.06,2.66.46.07.86.13,1.31.2.26.51.21,1.01.04,1.58-.43.05-.84.09-1.23.14-.2.92-.22,3.45-.06,4.64.32.59.87.31,1.35.3.21.52.22,1.01.13,1.54-.81.37-1.63.44-2.47.19-.65-.19-1.06-.62-1.15-1.31-.06-.5-.1-1-.11-1.5-.02-.89,0-1.78,0-2.66,0-.38-.03-.76-.04-1.15-.33-.07-.59-.13-.95-.21Z"/>
      <path class="cls-1" d="m18.07,70.08c.34-.11.63-.2.93-.29.03-.3.05-.57.07-.84.02-.23.05-.45.09-.74.62-.36,1.24-.73,1.95-1.14.23.96-.02,1.85.19,2.75.43.06.84.12,1.25.19.29.5.2.99.08,1.55-.4.06-.81.12-1.27.18-.31.76-.12,1.57-.14,2.37-.02.77-.06,1.54.05,2.26q.51.37,1.44.38c.13.48.2.96.06,1.49-.78.32-1.56.41-2.37.18-.71-.19-1.15-.63-1.23-1.36-.06-.54-.09-1.08-.1-1.62-.02-1,0-2.01-.01-3.01,0-.19-.03-.38-.05-.63-.3-.08-.58-.15-.91-.24-.1-.49-.06-.97-.03-1.47Z"/>
      <path class="cls-1" d="m159.54,78.23c-.75.16-1.35.14-2.01.04-.05-.18-.15-.36-.15-.54,0-2.43,0-4.86,0-7.3,0-.11.05-.22.08-.32.74-.26.78-.26,1.81-.08.06.25.11.5.19.85.57-.48.96-1.12,1.74-1.15.43-.01.8.06,1.45.42-.03.57-.3,1.08-.55,1.67-.29-.05-.58-.13-.87-.16-.66-.06-1.15.2-1.36.83-.16.47-.26.97-.29,1.47-.05.96-.03,1.93-.04,2.89,0,.42,0,.84,0,1.36Z"/>
      <path class="cls-1" d="m39.71,78.15v-8c.6-.4,1.21-.14,1.83-.22.08.33.14.58.21.83.07,0,.16.02.2-.01.12-.1.21-.22.32-.33.81-.79,1.47-.87,2.65-.26,0,.6-.25,1.14-.55,1.7-.3-.07-.55-.15-.81-.18-.66-.07-1.15.18-1.38.8-.17.46-.27.97-.3,1.46-.05,1.04-.03,2.08-.04,3.12,0,.38-.03.75-.06,1.18-.74.1-1.4.22-2.08-.1Z"/>
      <path class="cls-1" d="m76.09,66.86c.7-.13,1.3-.15,1.9,0,.05.15.11.26.11.36,0,3.56,0,7.11,0,10.67,0,.11-.06.21-.11.37-.6.14-1.2.1-1.87.02-.04-.2-.11-.38-.11-.56,0-3.44,0-6.88,0-10.32,0-.15.04-.3.08-.54Z"/>
      <path class="cls-1" d="m89.65,70.02c.71-.15,1.31-.14,1.97-.02.05.15.13.29.13.43,0,2.47,0,4.93,0,7.4,0,.11-.05.22-.08.37-.62.26-1.26.14-1.95.08-.05-.24-.13-.45-.13-.67,0-2.31,0-4.62,0-6.94,0-.19.04-.37.07-.65Z"/>
      <path class="cls-1" d="m91.67,68.6c-.68.16-1.31.16-1.94.02q-.2-.85-.01-1.74c.62-.17,1.26-.16,1.93,0,.16.58.14,1.13.02,1.72Z"/>
    </g>
  </g>
</svg>