<svg version="1.1" viewBox="0.0 0.0 342.7191601049869 124.8005249343832" fill="none" stroke="none" stroke-linecap="square" stroke-miterlimit="10" xmlns:xlink="http://www.w3.org/1999/xlink" xmlns="http://www.w3.org/2000/svg"><clipPath id="p.0"><path d="m0 0l342.71915 0l0 124.80052l-342.71915 0l0 -124.80052z" clip-rule="nonzero"/></clipPath><g clip-path="url(#p.0)"><path fill="#000000" fill-opacity="0.0" d="m0 0l342.71915 0l0 124.80052l-342.71915 0z" fill-rule="evenodd"/><path fill="#34a203" d="m-0.026246719 13.975065l35.527557 0l0 97.13386l-35.527557 0z" fill-rule="evenodd"/><path stroke="#34a203" stroke-width="1.0" stroke-linejoin="round" stroke-linecap="butt" d="m-0.026246719 13.975065l35.527557 0l0 97.13386l-35.527557 0z" fill-rule="evenodd"/><path fill="#000000" fill-opacity="0.0" d="m35.501312 0.17979002l307.24408 0l0 124.44095l-307.24408 0z" fill-rule="evenodd"/><path fill="#000000" d="m52.470062 92.37978l0 -61.531246l22.09375 0q10.3125 0 16.03125 4.953125q5.734375 4.9375 5.734375 13.6875q0 5.890625 -2.609375 10.1875q-2.59375 4.28125 -7.453125 6.531246q-4.84375 2.25 -11.703125 2.25l-14.640625 0l0 23.921875l-7.453125 0zm7.453125 -31.203121l14.640625 0q6.9375 0 10.4375 -2.9375q3.515625 -2.953125 3.515625 -8.75q0 -5.640625 -3.515625 -8.5q-3.5 -2.859375 -10.4375 -2.859375l-14.640625 0l0 23.046875zm63.353073 32.249996q-6.328125 0 -11.09375 -2.953125q-4.765625 -2.953125 -7.375 -8.359375q-2.59375 -5.421875 -2.59375 -12.703125q0 -7.359371 2.59375 -12.734371q2.609375 -5.375 7.375 -8.3125q4.765625 -2.953125 11.09375 -2.953125q6.328125 0 11.046875 2.953125q4.71875 2.9375 7.3125 8.3125q2.609375 5.375 2.609375 12.734371q0 7.28125 -2.609375 12.703125q-2.59375 5.40625 -7.3125 8.359375q-4.71875 2.953125 -11.046875 2.953125zm0 -6.9375q6.328125 0 9.828125 -4.546875q3.515625 -4.546875 3.515625 -12.53125q0 -7.968746 -3.515625 -12.515621q-3.5 -4.546875 -9.828125 -4.546875q-6.328125 0 -9.890625 4.546875q-3.546875 4.546875 -3.546875 12.515621q0 7.984375 3.546875 12.53125q3.5625 4.546875 9.890625 4.546875zm30.849915 5.890625l0 -45.92187l6.40625 0l0.34375 11.609375l-0.6875 -0.265625q0.859375 -5.890625 3.765625 -8.609375q2.90625 -2.734375 7.765625 -2.734375l4.5 0l0 6.921875l-4.421875 0q-3.46875 0 -5.765625 1.265625q-2.296875 1.25 -3.46875 3.71875q-1.15625 2.46875 -1.15625 6.281246l0 27.734375l-7.28125 0zm45.321915 0q-6.25 0 -9.234375 -2.859375q-2.984375 -2.859375 -2.984375 -8.921875l0 -44.89062l7.265625 0l0 44.718746q0 3.109375 1.390625 4.328125q1.390625 1.21875 4.25 1.21875l6.578125 0l0 6.40625l-7.265625 0zm-18.984375 -39.51562l0 -6.40625l26.25 0l0 6.40625l-26.25 0zm52.691986 40.562496q-6.328125 0 -11.09375 -2.953125q-4.765625 -2.953125 -7.375 -8.359375q-2.59375 -5.421875 -2.59375 -12.703125q0 -7.359371 2.59375 -12.734371q2.609375 -5.375 7.375 -8.3125q4.765625 -2.953125 11.09375 -2.953125q6.328125 0 11.046875 2.953125q4.71875 2.9375 7.3125 8.3125q2.609375 5.375 2.609375 12.734371q0 7.28125 -2.609375 12.703125q-2.59375 5.40625 -7.3125 8.359375q-4.71875 2.953125 -11.046875 2.953125zm0 -6.9375q6.328125 0 9.828125 -4.546875q3.515625 -4.546875 3.515625 -12.53125q0 -7.968746 -3.515625 -12.515621q-3.5 -4.546875 -9.828125 -4.546875q-6.328125 0 -9.890625 4.546875q-3.546875 4.546875 -3.546875 12.515621q0 7.984375 3.546875 12.53125q3.5625 4.546875 9.890625 4.546875zm40.283264 5.890625q-3.984375 0 -6.5 -2.078125q-2.5 -2.078125 -2.5 -6.59375l0 -52.85937l7.28125 0l0 52.26562q0 1.375 0.734375 2.125q0.734375 0.734375 2.125 0.734375l3.984375 0l0 6.40625l-5.125 0z" fill-rule="nonzero"/><path fill="#000000" d="m299.96683 93.42666q-7.109375 0 -11.3125 -3.296875q-4.203125 -3.296875 -4.203125 -9.1875q0 -5.890625 3.46875 -9.265625q3.46875 -3.390625 11.0 -4.78125l16.296875 -3.0312462q0 -5.796875 -2.734375 -8.65625q-2.734375 -2.859375 -8.1875 -2.859375q-4.765625 0 -7.546875 2.125q-2.765625 2.109375 -3.796875 6.109375l-7.71875 -0.609375q1.296875 -6.5 6.28125 -10.53125q4.984375 -4.03125 12.78125 -4.03125q8.84375 0 13.515625 4.984375q4.6875 4.984375 4.6875 13.734371l0 18.984375q0 1.546875 0.5625 2.203125q0.5625 0.65625 1.859375 0.65625l1.8125 0l0 6.40625q-0.34375 0.09375 -1.125 0.125q-0.78125 0.046875 -1.640625 0.046875q-3.125 0 -5.078125 -0.984375q-1.9375 -1.0 -2.8125 -3.125q-0.859375 -2.125 -0.859375 -5.59375l0.859375 0.171875q-0.609375 2.953125 -2.953125 5.34375q-2.328125 2.375 -5.796875 3.71875q-3.46875 1.34375 -7.359375 1.34375zm0.6875 -6.421875q4.59375 0 7.84375 -1.765625q3.25 -1.78125 4.984375 -4.859375q1.734375 -3.078125 1.734375 -6.890625l0 -3.296875l-14.90625 2.78125q-4.6875 0.859375 -6.46875 2.640625q-1.765625 1.78125 -1.765625 4.640625q0 3.203125 2.296875 4.984375q2.296875 1.765625 6.28125 1.765625z" fill-rule="nonzero"/></g></svg>